<?xml version="1.0" encoding="UTF-8" standalone="no"?>
<!DOCTYPE svg PUBLIC "-//W3C//DTD SVG 1.1//EN"
 "http://www.w3.org/Graphics/SVG/1.1/DTD/svg11.dtd">
<!-- Generated by graphviz version 13.1.2 (0)
 -->
<!-- Title: model Pages: 1 -->
<svg width="145pt" height="864pt"
 viewBox="0.00 0.00 145.00 864.00" xmlns="http://www.w3.org/2000/svg" xmlns:xlink="http://www.w3.org/1999/xlink">
<g id="graph0" class="graph" transform="scale(0.708487 0.708487) rotate(0) translate(4 1215.5)">
<title>model</title>
<polygon fill="white" stroke="none" points="-4,4 -4,-1215.5 200.5,-1215.5 200.5,4 -4,4"/>
<!-- 0 -->
<g id="node1" class="node">
<title>0</title>
<polygon fill="lightyellow" stroke="none" points="172,-1211.5 24.5,-1211.5 24.5,-1173 172,-1173 172,-1211.5"/>
<polygon fill="none" stroke="black" points="24.5,-1173 24.5,-1211.5 92.25,-1211.5 92.25,-1173 24.5,-1173"/>
<text xml:space="preserve" text-anchor="start" x="29.5" y="-1197" font-family="Linux libertine" font-size="10.00">input&#45;tensor</text>
<text xml:space="preserve" text-anchor="start" x="40" y="-1182.75" font-family="Linux libertine" font-size="10.00">depth:0</text>
<polygon fill="none" stroke="black" points="92.25,-1173 92.25,-1211.5 172,-1211.5 172,-1173 92.25,-1173"/>
<text xml:space="preserve" text-anchor="start" x="97.25" y="-1189.88" font-family="Linux libertine" font-size="10.00">(1, 3, 256, 256)</text>
</g>
<!-- 1 -->
<g id="node2" class="node">
<title>1</title>
<polygon fill="#c1ffc1" stroke="none" points="189,-1137 7.5,-1137 7.5,-1088.5 189,-1088.5 189,-1137"/>
<polygon fill="none" stroke="black" points="7.5,-1088.5 7.5,-1137 54.25,-1137 54.25,-1088.5 7.5,-1088.5"/>
<text xml:space="preserve" text-anchor="start" x="13.25" y="-1117.5" font-family="Linux libertine" font-size="10.00">Conv2d</text>
<text xml:space="preserve" text-anchor="start" x="12.5" y="-1103.25" font-family="Linux libertine" font-size="10.00">depth:1</text>
<polygon fill="none" stroke="black" points="54.25,-1112.75 54.25,-1137 101,-1137 101,-1112.75 54.25,-1112.75"/>
<text xml:space="preserve" text-anchor="start" x="64.12" y="-1122.5" font-family="Linux libertine" font-size="10.00">input:</text>
<polygon fill="none" stroke="black" points="101,-1112.75 101,-1137 189,-1137 189,-1112.75 101,-1112.75"/>
<text xml:space="preserve" text-anchor="start" x="109" y="-1122.5" font-family="Linux libertine" font-size="10.00">(1, 3, 256, 256) </text>
<polygon fill="none" stroke="black" points="54.25,-1088.5 54.25,-1112.75 101,-1112.75 101,-1088.5 54.25,-1088.5"/>
<text xml:space="preserve" text-anchor="start" x="59.25" y="-1098.25" font-family="Linux libertine" font-size="10.00">output: </text>
<polygon fill="none" stroke="black" points="101,-1088.5 101,-1112.75 189,-1112.75 189,-1088.5 101,-1088.5"/>
<text xml:space="preserve" text-anchor="start" x="106" y="-1098.25" font-family="Linux libertine" font-size="10.00">(1, 32, 256, 256) </text>
</g>
<!-- 0&#45;&gt;1 -->
<g id="edge1" class="edge">
<title>0&#45;&gt;1</title>
<path fill="none" stroke="black" d="M98.25,-1173.28C98.25,-1165.84 98.25,-1156.95 98.25,-1148.33"/>
<polygon fill="black" stroke="black" points="101.75,-1148.44 98.25,-1138.44 94.75,-1148.44 101.75,-1148.44"/>
</g>
<!-- 2 -->
<g id="node3" class="node">
<title>2</title>
<polygon fill="aliceblue" stroke="none" points="189,-1052.5 7.5,-1052.5 7.5,-1004 189,-1004 189,-1052.5"/>
<polygon fill="none" stroke="black" points="7.5,-1004 7.5,-1052.5 54.25,-1052.5 54.25,-1004 7.5,-1004"/>
<text xml:space="preserve" text-anchor="start" x="21.88" y="-1033" font-family="Linux libertine" font-size="10.00">relu</text>
<text xml:space="preserve" text-anchor="start" x="12.5" y="-1018.75" font-family="Linux libertine" font-size="10.00">depth:1</text>
<polygon fill="none" stroke="black" points="54.25,-1028.25 54.25,-1052.5 101,-1052.5 101,-1028.25 54.25,-1028.25"/>
<text xml:space="preserve" text-anchor="start" x="64.12" y="-1038" font-family="Linux libertine" font-size="10.00">input:</text>
<polygon fill="none" stroke="black" points="101,-1028.25 101,-1052.5 189,-1052.5 189,-1028.25 101,-1028.25"/>
<text xml:space="preserve" text-anchor="start" x="106" y="-1038" font-family="Linux libertine" font-size="10.00">(1, 32, 256, 256) </text>
<polygon fill="none" stroke="black" points="54.25,-1004 54.25,-1028.25 101,-1028.25 101,-1004 54.25,-1004"/>
<text xml:space="preserve" text-anchor="start" x="59.25" y="-1013.75" font-family="Linux libertine" font-size="10.00">output: </text>
<polygon fill="none" stroke="black" points="101,-1004 101,-1028.25 189,-1028.25 189,-1004 101,-1004"/>
<text xml:space="preserve" text-anchor="start" x="106" y="-1013.75" font-family="Linux libertine" font-size="10.00">(1, 32, 256, 256) </text>
</g>
<!-- 1&#45;&gt;2 -->
<g id="edge2" class="edge">
<title>1&#45;&gt;2</title>
<path fill="none" stroke="black" d="M98.25,-1088.77C98.25,-1081.06 98.25,-1072.28 98.25,-1063.87"/>
<polygon fill="black" stroke="black" points="101.75,-1063.91 98.25,-1053.91 94.75,-1063.91 101.75,-1063.91"/>
</g>
<!-- 3 -->
<g id="node4" class="node">
<title>3</title>
<polygon fill="#c1ffc1" stroke="none" points="196.5,-968 0,-968 0,-919.5 196.5,-919.5 196.5,-968"/>
<polygon fill="none" stroke="black" points="0,-919.5 0,-968 61.75,-968 61.75,-919.5 0,-919.5"/>
<text xml:space="preserve" text-anchor="start" x="5" y="-948.5" font-family="Linux libertine" font-size="10.00">MaxPool2d</text>
<text xml:space="preserve" text-anchor="start" x="12.5" y="-934.25" font-family="Linux libertine" font-size="10.00">depth:1</text>
<polygon fill="none" stroke="black" points="61.75,-943.75 61.75,-968 108.5,-968 108.5,-943.75 61.75,-943.75"/>
<text xml:space="preserve" text-anchor="start" x="71.62" y="-953.5" font-family="Linux libertine" font-size="10.00">input:</text>
<polygon fill="none" stroke="black" points="108.5,-943.75 108.5,-968 196.5,-968 196.5,-943.75 108.5,-943.75"/>
<text xml:space="preserve" text-anchor="start" x="113.5" y="-953.5" font-family="Linux libertine" font-size="10.00">(1, 32, 256, 256) </text>
<polygon fill="none" stroke="black" points="61.75,-919.5 61.75,-943.75 108.5,-943.75 108.5,-919.5 61.75,-919.5"/>
<text xml:space="preserve" text-anchor="start" x="66.75" y="-929.25" font-family="Linux libertine" font-size="10.00">output: </text>
<polygon fill="none" stroke="black" points="108.5,-919.5 108.5,-943.75 196.5,-943.75 196.5,-919.5 108.5,-919.5"/>
<text xml:space="preserve" text-anchor="start" x="113.5" y="-929.25" font-family="Linux libertine" font-size="10.00">(1, 32, 128, 128) </text>
</g>
<!-- 2&#45;&gt;3 -->
<g id="edge3" class="edge">
<title>2&#45;&gt;3</title>
<path fill="none" stroke="black" d="M98.25,-1004.27C98.25,-996.56 98.25,-987.78 98.25,-979.37"/>
<polygon fill="black" stroke="black" points="101.75,-979.41 98.25,-969.41 94.75,-979.41 101.75,-979.41"/>
</g>
<!-- 4 -->
<g id="node5" class="node">
<title>4</title>
<polygon fill="#c1ffc1" stroke="none" points="189,-883.5 7.5,-883.5 7.5,-835 189,-835 189,-883.5"/>
<polygon fill="none" stroke="black" points="7.5,-835 7.5,-883.5 54.25,-883.5 54.25,-835 7.5,-835"/>
<text xml:space="preserve" text-anchor="start" x="13.25" y="-864" font-family="Linux libertine" font-size="10.00">Conv2d</text>
<text xml:space="preserve" text-anchor="start" x="12.5" y="-849.75" font-family="Linux libertine" font-size="10.00">depth:1</text>
<polygon fill="none" stroke="black" points="54.25,-859.25 54.25,-883.5 101,-883.5 101,-859.25 54.25,-859.25"/>
<text xml:space="preserve" text-anchor="start" x="64.12" y="-869" font-family="Linux libertine" font-size="10.00">input:</text>
<polygon fill="none" stroke="black" points="101,-859.25 101,-883.5 189,-883.5 189,-859.25 101,-859.25"/>
<text xml:space="preserve" text-anchor="start" x="106" y="-869" font-family="Linux libertine" font-size="10.00">(1, 32, 128, 128) </text>
<polygon fill="none" stroke="black" points="54.25,-835 54.25,-859.25 101,-859.25 101,-835 54.25,-835"/>
<text xml:space="preserve" text-anchor="start" x="59.25" y="-844.75" font-family="Linux libertine" font-size="10.00">output: </text>
<polygon fill="none" stroke="black" points="101,-835 101,-859.25 189,-859.25 189,-835 101,-835"/>
<text xml:space="preserve" text-anchor="start" x="106" y="-844.75" font-family="Linux libertine" font-size="10.00">(1, 64, 128, 128) </text>
</g>
<!-- 3&#45;&gt;4 -->
<g id="edge4" class="edge">
<title>3&#45;&gt;4</title>
<path fill="none" stroke="black" d="M98.25,-919.77C98.25,-912.06 98.25,-903.28 98.25,-894.87"/>
<polygon fill="black" stroke="black" points="101.75,-894.91 98.25,-884.91 94.75,-894.91 101.75,-894.91"/>
</g>
<!-- 5 -->
<g id="node6" class="node">
<title>5</title>
<polygon fill="aliceblue" stroke="none" points="189,-799 7.5,-799 7.5,-750.5 189,-750.5 189,-799"/>
<polygon fill="none" stroke="black" points="7.5,-750.5 7.5,-799 54.25,-799 54.25,-750.5 7.5,-750.5"/>
<text xml:space="preserve" text-anchor="start" x="21.88" y="-779.5" font-family="Linux libertine" font-size="10.00">relu</text>
<text xml:space="preserve" text-anchor="start" x="12.5" y="-765.25" font-family="Linux libertine" font-size="10.00">depth:1</text>
<polygon fill="none" stroke="black" points="54.25,-774.75 54.25,-799 101,-799 101,-774.75 54.25,-774.75"/>
<text xml:space="preserve" text-anchor="start" x="64.12" y="-784.5" font-family="Linux libertine" font-size="10.00">input:</text>
<polygon fill="none" stroke="black" points="101,-774.75 101,-799 189,-799 189,-774.75 101,-774.75"/>
<text xml:space="preserve" text-anchor="start" x="106" y="-784.5" font-family="Linux libertine" font-size="10.00">(1, 64, 128, 128) </text>
<polygon fill="none" stroke="black" points="54.25,-750.5 54.25,-774.75 101,-774.75 101,-750.5 54.25,-750.5"/>
<text xml:space="preserve" text-anchor="start" x="59.25" y="-760.25" font-family="Linux libertine" font-size="10.00">output: </text>
<polygon fill="none" stroke="black" points="101,-750.5 101,-774.75 189,-774.75 189,-750.5 101,-750.5"/>
<text xml:space="preserve" text-anchor="start" x="106" y="-760.25" font-family="Linux libertine" font-size="10.00">(1, 64, 128, 128) </text>
</g>
<!-- 4&#45;&gt;5 -->
<g id="edge5" class="edge">
<title>4&#45;&gt;5</title>
<path fill="none" stroke="black" d="M98.25,-835.27C98.25,-827.56 98.25,-818.78 98.25,-810.37"/>
<polygon fill="black" stroke="black" points="101.75,-810.41 98.25,-800.41 94.75,-810.41 101.75,-810.41"/>
</g>
<!-- 6 -->
<g id="node7" class="node">
<title>6</title>
<polygon fill="#c1ffc1" stroke="none" points="196.5,-714.5 0,-714.5 0,-666 196.5,-666 196.5,-714.5"/>
<polygon fill="none" stroke="black" points="0,-666 0,-714.5 61.75,-714.5 61.75,-666 0,-666"/>
<text xml:space="preserve" text-anchor="start" x="5" y="-695" font-family="Linux libertine" font-size="10.00">MaxPool2d</text>
<text xml:space="preserve" text-anchor="start" x="12.5" y="-680.75" font-family="Linux libertine" font-size="10.00">depth:1</text>
<polygon fill="none" stroke="black" points="61.75,-690.25 61.75,-714.5 108.5,-714.5 108.5,-690.25 61.75,-690.25"/>
<text xml:space="preserve" text-anchor="start" x="71.62" y="-700" font-family="Linux libertine" font-size="10.00">input:</text>
<polygon fill="none" stroke="black" points="108.5,-690.25 108.5,-714.5 196.5,-714.5 196.5,-690.25 108.5,-690.25"/>
<text xml:space="preserve" text-anchor="start" x="113.5" y="-700" font-family="Linux libertine" font-size="10.00">(1, 64, 128, 128) </text>
<polygon fill="none" stroke="black" points="61.75,-666 61.75,-690.25 108.5,-690.25 108.5,-666 61.75,-666"/>
<text xml:space="preserve" text-anchor="start" x="66.75" y="-675.75" font-family="Linux libertine" font-size="10.00">output: </text>
<polygon fill="none" stroke="black" points="108.5,-666 108.5,-690.25 196.5,-690.25 196.5,-666 108.5,-666"/>
<text xml:space="preserve" text-anchor="start" x="119.5" y="-675.75" font-family="Linux libertine" font-size="10.00">(1, 64, 64, 64) </text>
</g>
<!-- 5&#45;&gt;6 -->
<g id="edge6" class="edge">
<title>5&#45;&gt;6</title>
<path fill="none" stroke="black" d="M98.25,-750.77C98.25,-743.06 98.25,-734.28 98.25,-725.87"/>
<polygon fill="black" stroke="black" points="101.75,-725.91 98.25,-715.91 94.75,-725.91 101.75,-725.91"/>
</g>
<!-- 7 -->
<g id="node8" class="node">
<title>7</title>
<polygon fill="#c1ffc1" stroke="none" points="186,-630 10.5,-630 10.5,-581.5 186,-581.5 186,-630"/>
<polygon fill="none" stroke="black" points="10.5,-581.5 10.5,-630 57.25,-630 57.25,-581.5 10.5,-581.5"/>
<text xml:space="preserve" text-anchor="start" x="16.25" y="-610.5" font-family="Linux libertine" font-size="10.00">Conv2d</text>
<text xml:space="preserve" text-anchor="start" x="15.5" y="-596.25" font-family="Linux libertine" font-size="10.00">depth:1</text>
<polygon fill="none" stroke="black" points="57.25,-605.75 57.25,-630 104,-630 104,-605.75 57.25,-605.75"/>
<text xml:space="preserve" text-anchor="start" x="67.12" y="-615.5" font-family="Linux libertine" font-size="10.00">input:</text>
<polygon fill="none" stroke="black" points="104,-605.75 104,-630 186,-630 186,-605.75 104,-605.75"/>
<text xml:space="preserve" text-anchor="start" x="112" y="-615.5" font-family="Linux libertine" font-size="10.00">(1, 64, 64, 64) </text>
<polygon fill="none" stroke="black" points="57.25,-581.5 57.25,-605.75 104,-605.75 104,-581.5 57.25,-581.5"/>
<text xml:space="preserve" text-anchor="start" x="62.25" y="-591.25" font-family="Linux libertine" font-size="10.00">output: </text>
<polygon fill="none" stroke="black" points="104,-581.5 104,-605.75 186,-605.75 186,-581.5 104,-581.5"/>
<text xml:space="preserve" text-anchor="start" x="109" y="-591.25" font-family="Linux libertine" font-size="10.00">(1, 128, 64, 64) </text>
</g>
<!-- 6&#45;&gt;7 -->
<g id="edge7" class="edge">
<title>6&#45;&gt;7</title>
<path fill="none" stroke="black" d="M98.25,-666.27C98.25,-658.56 98.25,-649.78 98.25,-641.37"/>
<polygon fill="black" stroke="black" points="101.75,-641.41 98.25,-631.41 94.75,-641.41 101.75,-641.41"/>
</g>
<!-- 8 -->
<g id="node9" class="node">
<title>8</title>
<polygon fill="aliceblue" stroke="none" points="186,-545.5 10.5,-545.5 10.5,-497 186,-497 186,-545.5"/>
<polygon fill="none" stroke="black" points="10.5,-497 10.5,-545.5 57.25,-545.5 57.25,-497 10.5,-497"/>
<text xml:space="preserve" text-anchor="start" x="24.88" y="-526" font-family="Linux libertine" font-size="10.00">relu</text>
<text xml:space="preserve" text-anchor="start" x="15.5" y="-511.75" font-family="Linux libertine" font-size="10.00">depth:1</text>
<polygon fill="none" stroke="black" points="57.25,-521.25 57.25,-545.5 104,-545.5 104,-521.25 57.25,-521.25"/>
<text xml:space="preserve" text-anchor="start" x="67.12" y="-531" font-family="Linux libertine" font-size="10.00">input:</text>
<polygon fill="none" stroke="black" points="104,-521.25 104,-545.5 186,-545.5 186,-521.25 104,-521.25"/>
<text xml:space="preserve" text-anchor="start" x="109" y="-531" font-family="Linux libertine" font-size="10.00">(1, 128, 64, 64) </text>
<polygon fill="none" stroke="black" points="57.25,-497 57.25,-521.25 104,-521.25 104,-497 57.25,-497"/>
<text xml:space="preserve" text-anchor="start" x="62.25" y="-506.75" font-family="Linux libertine" font-size="10.00">output: </text>
<polygon fill="none" stroke="black" points="104,-497 104,-521.25 186,-521.25 186,-497 104,-497"/>
<text xml:space="preserve" text-anchor="start" x="109" y="-506.75" font-family="Linux libertine" font-size="10.00">(1, 128, 64, 64) </text>
</g>
<!-- 7&#45;&gt;8 -->
<g id="edge8" class="edge">
<title>7&#45;&gt;8</title>
<path fill="none" stroke="black" d="M98.25,-581.77C98.25,-574.06 98.25,-565.28 98.25,-556.87"/>
<polygon fill="black" stroke="black" points="101.75,-556.91 98.25,-546.91 94.75,-556.91 101.75,-556.91"/>
</g>
<!-- 9 -->
<g id="node10" class="node">
<title>9</title>
<polygon fill="#c1ffc1" stroke="none" points="193.5,-461 3,-461 3,-412.5 193.5,-412.5 193.5,-461"/>
<polygon fill="none" stroke="black" points="3,-412.5 3,-461 64.75,-461 64.75,-412.5 3,-412.5"/>
<text xml:space="preserve" text-anchor="start" x="8" y="-441.5" font-family="Linux libertine" font-size="10.00">MaxPool2d</text>
<text xml:space="preserve" text-anchor="start" x="15.5" y="-427.25" font-family="Linux libertine" font-size="10.00">depth:1</text>
<polygon fill="none" stroke="black" points="64.75,-436.75 64.75,-461 111.5,-461 111.5,-436.75 64.75,-436.75"/>
<text xml:space="preserve" text-anchor="start" x="74.62" y="-446.5" font-family="Linux libertine" font-size="10.00">input:</text>
<polygon fill="none" stroke="black" points="111.5,-436.75 111.5,-461 193.5,-461 193.5,-436.75 111.5,-436.75"/>
<text xml:space="preserve" text-anchor="start" x="116.5" y="-446.5" font-family="Linux libertine" font-size="10.00">(1, 128, 64, 64) </text>
<polygon fill="none" stroke="black" points="64.75,-412.5 64.75,-436.75 111.5,-436.75 111.5,-412.5 64.75,-412.5"/>
<text xml:space="preserve" text-anchor="start" x="69.75" y="-422.25" font-family="Linux libertine" font-size="10.00">output: </text>
<polygon fill="none" stroke="black" points="111.5,-412.5 111.5,-436.75 193.5,-436.75 193.5,-412.5 111.5,-412.5"/>
<text xml:space="preserve" text-anchor="start" x="116.5" y="-422.25" font-family="Linux libertine" font-size="10.00">(1, 128, 32, 32) </text>
</g>
<!-- 8&#45;&gt;9 -->
<g id="edge9" class="edge">
<title>8&#45;&gt;9</title>
<path fill="none" stroke="black" d="M98.25,-497.27C98.25,-489.56 98.25,-480.78 98.25,-472.37"/>
<polygon fill="black" stroke="black" points="101.75,-472.41 98.25,-462.41 94.75,-472.41 101.75,-472.41"/>
</g>
<!-- 10 -->
<g id="node11" class="node">
<title>10</title>
<polygon fill="aliceblue" stroke="none" points="186,-376.5 10.5,-376.5 10.5,-328 186,-328 186,-376.5"/>
<polygon fill="none" stroke="black" points="10.5,-328 10.5,-376.5 57.25,-376.5 57.25,-328 10.5,-328"/>
<text xml:space="preserve" text-anchor="start" x="23.75" y="-357" font-family="Linux libertine" font-size="10.00">view</text>
<text xml:space="preserve" text-anchor="start" x="15.5" y="-342.75" font-family="Linux libertine" font-size="10.00">depth:1</text>
<polygon fill="none" stroke="black" points="57.25,-352.25 57.25,-376.5 104,-376.5 104,-352.25 57.25,-352.25"/>
<text xml:space="preserve" text-anchor="start" x="67.12" y="-362" font-family="Linux libertine" font-size="10.00">input:</text>
<polygon fill="none" stroke="black" points="104,-352.25 104,-376.5 186,-376.5 186,-352.25 104,-352.25"/>
<text xml:space="preserve" text-anchor="start" x="109" y="-362" font-family="Linux libertine" font-size="10.00">(1, 128, 32, 32) </text>
<polygon fill="none" stroke="black" points="57.25,-328 57.25,-352.25 104,-352.25 104,-328 57.25,-328"/>
<text xml:space="preserve" text-anchor="start" x="62.25" y="-337.75" font-family="Linux libertine" font-size="10.00">output: </text>
<polygon fill="none" stroke="black" points="104,-328 104,-352.25 186,-352.25 186,-328 104,-328"/>
<text xml:space="preserve" text-anchor="start" x="117.25" y="-337.75" font-family="Linux libertine" font-size="10.00">(1, 131072) </text>
</g>
<!-- 9&#45;&gt;10 -->
<g id="edge10" class="edge">
<title>9&#45;&gt;10</title>
<path fill="none" stroke="black" d="M98.25,-412.77C98.25,-405.06 98.25,-396.28 98.25,-387.87"/>
<polygon fill="black" stroke="black" points="101.75,-387.91 98.25,-377.91 94.75,-387.91 101.75,-387.91"/>
</g>
<!-- 11 -->
<g id="node12" class="node">
<title>11</title>
<polygon fill="#c1ffc1" stroke="none" points="177.75,-292 18.75,-292 18.75,-243.5 177.75,-243.5 177.75,-292"/>
<polygon fill="none" stroke="black" points="18.75,-243.5 18.75,-292 65.5,-292 65.5,-243.5 18.75,-243.5"/>
<text xml:space="preserve" text-anchor="start" x="27.5" y="-272.5" font-family="Linux libertine" font-size="10.00">Linear</text>
<text xml:space="preserve" text-anchor="start" x="23.75" y="-258.25" font-family="Linux libertine" font-size="10.00">depth:1</text>
<polygon fill="none" stroke="black" points="65.5,-267.75 65.5,-292 112.25,-292 112.25,-267.75 65.5,-267.75"/>
<text xml:space="preserve" text-anchor="start" x="75.38" y="-277.5" font-family="Linux libertine" font-size="10.00">input:</text>
<polygon fill="none" stroke="black" points="112.25,-267.75 112.25,-292 177.75,-292 177.75,-267.75 112.25,-267.75"/>
<text xml:space="preserve" text-anchor="start" x="117.25" y="-277.5" font-family="Linux libertine" font-size="10.00">(1, 131072) </text>
<polygon fill="none" stroke="black" points="65.5,-243.5 65.5,-267.75 112.25,-267.75 112.25,-243.5 65.5,-243.5"/>
<text xml:space="preserve" text-anchor="start" x="70.5" y="-253.25" font-family="Linux libertine" font-size="10.00">output: </text>
<polygon fill="none" stroke="black" points="112.25,-243.5 112.25,-267.75 177.75,-267.75 177.75,-243.5 112.25,-243.5"/>
<text xml:space="preserve" text-anchor="start" x="126.25" y="-253.25" font-family="Linux libertine" font-size="10.00">(1, 256) </text>
</g>
<!-- 10&#45;&gt;11 -->
<g id="edge11" class="edge">
<title>10&#45;&gt;11</title>
<path fill="none" stroke="black" d="M98.25,-328.27C98.25,-320.56 98.25,-311.78 98.25,-303.37"/>
<polygon fill="black" stroke="black" points="101.75,-303.41 98.25,-293.41 94.75,-303.41 101.75,-303.41"/>
</g>
<!-- 12 -->
<g id="node13" class="node">
<title>12</title>
<polygon fill="aliceblue" stroke="none" points="168.75,-207.5 27.75,-207.5 27.75,-159 168.75,-159 168.75,-207.5"/>
<polygon fill="none" stroke="black" points="27.75,-159 27.75,-207.5 74.5,-207.5 74.5,-159 27.75,-159"/>
<text xml:space="preserve" text-anchor="start" x="42.12" y="-188" font-family="Linux libertine" font-size="10.00">relu</text>
<text xml:space="preserve" text-anchor="start" x="32.75" y="-173.75" font-family="Linux libertine" font-size="10.00">depth:1</text>
<polygon fill="none" stroke="black" points="74.5,-183.25 74.5,-207.5 121.25,-207.5 121.25,-183.25 74.5,-183.25"/>
<text xml:space="preserve" text-anchor="start" x="84.38" y="-193" font-family="Linux libertine" font-size="10.00">input:</text>
<polygon fill="none" stroke="black" points="121.25,-183.25 121.25,-207.5 168.75,-207.5 168.75,-183.25 121.25,-183.25"/>
<text xml:space="preserve" text-anchor="start" x="126.25" y="-193" font-family="Linux libertine" font-size="10.00">(1, 256) </text>
<polygon fill="none" stroke="black" points="74.5,-159 74.5,-183.25 121.25,-183.25 121.25,-159 74.5,-159"/>
<text xml:space="preserve" text-anchor="start" x="79.5" y="-168.75" font-family="Linux libertine" font-size="10.00">output: </text>
<polygon fill="none" stroke="black" points="121.25,-159 121.25,-183.25 168.75,-183.25 168.75,-159 121.25,-159"/>
<text xml:space="preserve" text-anchor="start" x="126.25" y="-168.75" font-family="Linux libertine" font-size="10.00">(1, 256) </text>
</g>
<!-- 11&#45;&gt;12 -->
<g id="edge12" class="edge">
<title>11&#45;&gt;12</title>
<path fill="none" stroke="black" d="M98.25,-243.77C98.25,-236.06 98.25,-227.28 98.25,-218.87"/>
<polygon fill="black" stroke="black" points="101.75,-218.91 98.25,-208.91 94.75,-218.91 101.75,-218.91"/>
</g>
<!-- 13 -->
<g id="node14" class="node">
<title>13</title>
<polygon fill="#c1ffc1" stroke="none" points="168.75,-123 27.75,-123 27.75,-74.5 168.75,-74.5 168.75,-123"/>
<polygon fill="none" stroke="black" points="27.75,-74.5 27.75,-123 74.5,-123 74.5,-74.5 27.75,-74.5"/>
<text xml:space="preserve" text-anchor="start" x="36.5" y="-103.5" font-family="Linux libertine" font-size="10.00">Linear</text>
<text xml:space="preserve" text-anchor="start" x="32.75" y="-89.25" font-family="Linux libertine" font-size="10.00">depth:1</text>
<polygon fill="none" stroke="black" points="74.5,-98.75 74.5,-123 121.25,-123 121.25,-98.75 74.5,-98.75"/>
<text xml:space="preserve" text-anchor="start" x="84.38" y="-108.5" font-family="Linux libertine" font-size="10.00">input:</text>
<polygon fill="none" stroke="black" points="121.25,-98.75 121.25,-123 168.75,-123 168.75,-98.75 121.25,-98.75"/>
<text xml:space="preserve" text-anchor="start" x="126.25" y="-108.5" font-family="Linux libertine" font-size="10.00">(1, 256) </text>
<polygon fill="none" stroke="black" points="74.5,-74.5 74.5,-98.75 121.25,-98.75 121.25,-74.5 74.5,-74.5"/>
<text xml:space="preserve" text-anchor="start" x="79.5" y="-84.25" font-family="Linux libertine" font-size="10.00">output: </text>
<polygon fill="none" stroke="black" points="121.25,-74.5 121.25,-98.75 168.75,-98.75 168.75,-74.5 121.25,-74.5"/>
<text xml:space="preserve" text-anchor="start" x="132.25" y="-84.25" font-family="Linux libertine" font-size="10.00">(1, 3) </text>
</g>
<!-- 12&#45;&gt;13 -->
<g id="edge13" class="edge">
<title>12&#45;&gt;13</title>
<path fill="none" stroke="black" d="M98.25,-159.27C98.25,-151.56 98.25,-142.78 98.25,-134.37"/>
<polygon fill="black" stroke="black" points="101.75,-134.41 98.25,-124.41 94.75,-134.41 101.75,-134.41"/>
</g>
<!-- 14 -->
<g id="node15" class="node">
<title>14</title>
<polygon fill="lightyellow" stroke="none" points="152.5,-38.5 44,-38.5 44,0 152.5,0 152.5,-38.5"/>
<polygon fill="none" stroke="black" points="44,0 44,-38.5 119.25,-38.5 119.25,0 44,0"/>
<text xml:space="preserve" text-anchor="start" x="49" y="-24" font-family="Linux libertine" font-size="10.00">output&#45;tensor</text>
<text xml:space="preserve" text-anchor="start" x="63.25" y="-9.75" font-family="Linux libertine" font-size="10.00">depth:0</text>
<polygon fill="none" stroke="black" points="119.25,0 119.25,-38.5 152.5,-38.5 152.5,0 119.25,0"/>
<text xml:space="preserve" text-anchor="start" x="124.25" y="-16.88" font-family="Linux libertine" font-size="10.00">(1, 3)</text>
</g>
<!-- 13&#45;&gt;14 -->
<g id="edge14" class="edge">
<title>13&#45;&gt;14</title>
<path fill="none" stroke="black" d="M98.25,-74.92C98.25,-66.97 98.25,-57.93 98.25,-49.53"/>
<polygon fill="black" stroke="black" points="101.75,-49.77 98.25,-39.77 94.75,-49.77 101.75,-49.77"/>
</g>
</g>
</svg>
