<?xml version="1.0" encoding="UTF-8" standalone="no"?>
<!DOCTYPE svg PUBLIC "-//W3C//DTD SVG 1.1//EN"
 "http://www.w3.org/Graphics/SVG/1.1/DTD/svg11.dtd">
<!-- Generated by graphviz version 13.1.2 (0)
 -->
<!-- Title: model Pages: 1 -->
<svg width="112pt" height="929pt"
 viewBox="0.00 0.00 112.00 929.00" xmlns="http://www.w3.org/2000/svg" xmlns:xlink="http://www.w3.org/1999/xlink">
<g id="graph0" class="graph" transform="scale(0.512976 0.512976) rotate(0) translate(4 1807)">
<title>model</title>
<polygon fill="white" stroke="none" points="-4,4 -4,-1807 214,-1807 214,4 -4,4"/>
<!-- 0 -->
<g id="node1" class="node">
<title>0</title>
<polygon fill="lightyellow" stroke="none" points="178.75,-1803 31.25,-1803 31.25,-1764.5 178.75,-1764.5 178.75,-1803"/>
<polygon fill="none" stroke="black" points="31.25,-1764.5 31.25,-1803 99,-1803 99,-1764.5 31.25,-1764.5"/>
<text xml:space="preserve" text-anchor="start" x="36.25" y="-1788.5" font-family="Linux libertine" font-size="10.00">input&#45;tensor</text>
<text xml:space="preserve" text-anchor="start" x="46.75" y="-1774.25" font-family="Linux libertine" font-size="10.00">depth:0</text>
<polygon fill="none" stroke="black" points="99,-1764.5 99,-1803 178.75,-1803 178.75,-1764.5 99,-1764.5"/>
<text xml:space="preserve" text-anchor="start" x="104" y="-1781.38" font-family="Linux libertine" font-size="10.00">(1, 3, 256, 256)</text>
</g>
<!-- 1 -->
<g id="node2" class="node">
<title>1</title>
<polygon fill="#c1ffc1" stroke="none" points="195.75,-1728.5 14.25,-1728.5 14.25,-1680 195.75,-1680 195.75,-1728.5"/>
<polygon fill="none" stroke="black" points="14.25,-1680 14.25,-1728.5 61,-1728.5 61,-1680 14.25,-1680"/>
<text xml:space="preserve" text-anchor="start" x="20" y="-1709" font-family="Linux libertine" font-size="10.00">Conv2d</text>
<text xml:space="preserve" text-anchor="start" x="19.25" y="-1694.75" font-family="Linux libertine" font-size="10.00">depth:1</text>
<polygon fill="none" stroke="black" points="61,-1704.25 61,-1728.5 107.75,-1728.5 107.75,-1704.25 61,-1704.25"/>
<text xml:space="preserve" text-anchor="start" x="70.88" y="-1714" font-family="Linux libertine" font-size="10.00">input:</text>
<polygon fill="none" stroke="black" points="107.75,-1704.25 107.75,-1728.5 195.75,-1728.5 195.75,-1704.25 107.75,-1704.25"/>
<text xml:space="preserve" text-anchor="start" x="115.75" y="-1714" font-family="Linux libertine" font-size="10.00">(1, 3, 256, 256) </text>
<polygon fill="none" stroke="black" points="61,-1680 61,-1704.25 107.75,-1704.25 107.75,-1680 61,-1680"/>
<text xml:space="preserve" text-anchor="start" x="66" y="-1689.75" font-family="Linux libertine" font-size="10.00">output: </text>
<polygon fill="none" stroke="black" points="107.75,-1680 107.75,-1704.25 195.75,-1704.25 195.75,-1680 107.75,-1680"/>
<text xml:space="preserve" text-anchor="start" x="112.75" y="-1689.75" font-family="Linux libertine" font-size="10.00">(1, 32, 256, 256) </text>
</g>
<!-- 0&#45;&gt;1 -->
<g id="edge1" class="edge">
<title>0&#45;&gt;1</title>
<path fill="none" stroke="black" d="M105,-1764.78C105,-1757.34 105,-1748.45 105,-1739.83"/>
<polygon fill="black" stroke="black" points="108.5,-1739.94 105,-1729.94 101.5,-1739.94 108.5,-1739.94"/>
</g>
<!-- 2 -->
<g id="node3" class="node">
<title>2</title>
<polygon fill="#c1ffc1" stroke="none" points="210,-1644 0,-1644 0,-1595.5 210,-1595.5 210,-1644"/>
<polygon fill="none" stroke="black" points="0,-1595.5 0,-1644 75.25,-1644 75.25,-1595.5 0,-1595.5"/>
<text xml:space="preserve" text-anchor="start" x="5" y="-1624.5" font-family="Linux libertine" font-size="10.00">BatchNorm2d</text>
<text xml:space="preserve" text-anchor="start" x="19.25" y="-1610.25" font-family="Linux libertine" font-size="10.00">depth:1</text>
<polygon fill="none" stroke="black" points="75.25,-1619.75 75.25,-1644 122,-1644 122,-1619.75 75.25,-1619.75"/>
<text xml:space="preserve" text-anchor="start" x="85.12" y="-1629.5" font-family="Linux libertine" font-size="10.00">input:</text>
<polygon fill="none" stroke="black" points="122,-1619.75 122,-1644 210,-1644 210,-1619.75 122,-1619.75"/>
<text xml:space="preserve" text-anchor="start" x="127" y="-1629.5" font-family="Linux libertine" font-size="10.00">(1, 32, 256, 256) </text>
<polygon fill="none" stroke="black" points="75.25,-1595.5 75.25,-1619.75 122,-1619.75 122,-1595.5 75.25,-1595.5"/>
<text xml:space="preserve" text-anchor="start" x="80.25" y="-1605.25" font-family="Linux libertine" font-size="10.00">output: </text>
<polygon fill="none" stroke="black" points="122,-1595.5 122,-1619.75 210,-1619.75 210,-1595.5 122,-1595.5"/>
<text xml:space="preserve" text-anchor="start" x="127" y="-1605.25" font-family="Linux libertine" font-size="10.00">(1, 32, 256, 256) </text>
</g>
<!-- 1&#45;&gt;2 -->
<g id="edge2" class="edge">
<title>1&#45;&gt;2</title>
<path fill="none" stroke="black" d="M105,-1680.27C105,-1672.56 105,-1663.78 105,-1655.37"/>
<polygon fill="black" stroke="black" points="108.5,-1655.41 105,-1645.41 101.5,-1655.41 108.5,-1655.41"/>
</g>
<!-- 3 -->
<g id="node4" class="node">
<title>3</title>
<polygon fill="aliceblue" stroke="none" points="195.75,-1559.5 14.25,-1559.5 14.25,-1511 195.75,-1511 195.75,-1559.5"/>
<polygon fill="none" stroke="black" points="14.25,-1511 14.25,-1559.5 61,-1559.5 61,-1511 14.25,-1511"/>
<text xml:space="preserve" text-anchor="start" x="28.62" y="-1540" font-family="Linux libertine" font-size="10.00">relu</text>
<text xml:space="preserve" text-anchor="start" x="19.25" y="-1525.75" font-family="Linux libertine" font-size="10.00">depth:1</text>
<polygon fill="none" stroke="black" points="61,-1535.25 61,-1559.5 107.75,-1559.5 107.75,-1535.25 61,-1535.25"/>
<text xml:space="preserve" text-anchor="start" x="70.88" y="-1545" font-family="Linux libertine" font-size="10.00">input:</text>
<polygon fill="none" stroke="black" points="107.75,-1535.25 107.75,-1559.5 195.75,-1559.5 195.75,-1535.25 107.75,-1535.25"/>
<text xml:space="preserve" text-anchor="start" x="112.75" y="-1545" font-family="Linux libertine" font-size="10.00">(1, 32, 256, 256) </text>
<polygon fill="none" stroke="black" points="61,-1511 61,-1535.25 107.75,-1535.25 107.75,-1511 61,-1511"/>
<text xml:space="preserve" text-anchor="start" x="66" y="-1520.75" font-family="Linux libertine" font-size="10.00">output: </text>
<polygon fill="none" stroke="black" points="107.75,-1511 107.75,-1535.25 195.75,-1535.25 195.75,-1511 107.75,-1511"/>
<text xml:space="preserve" text-anchor="start" x="112.75" y="-1520.75" font-family="Linux libertine" font-size="10.00">(1, 32, 256, 256) </text>
</g>
<!-- 2&#45;&gt;3 -->
<g id="edge3" class="edge">
<title>2&#45;&gt;3</title>
<path fill="none" stroke="black" d="M105,-1595.77C105,-1588.06 105,-1579.28 105,-1570.87"/>
<polygon fill="black" stroke="black" points="108.5,-1570.91 105,-1560.91 101.5,-1570.91 108.5,-1570.91"/>
</g>
<!-- 4 -->
<g id="node5" class="node">
<title>4</title>
<polygon fill="#c1ffc1" stroke="none" points="203.25,-1475 6.75,-1475 6.75,-1426.5 203.25,-1426.5 203.25,-1475"/>
<polygon fill="none" stroke="black" points="6.75,-1426.5 6.75,-1475 68.5,-1475 68.5,-1426.5 6.75,-1426.5"/>
<text xml:space="preserve" text-anchor="start" x="11.75" y="-1455.5" font-family="Linux libertine" font-size="10.00">MaxPool2d</text>
<text xml:space="preserve" text-anchor="start" x="19.25" y="-1441.25" font-family="Linux libertine" font-size="10.00">depth:1</text>
<polygon fill="none" stroke="black" points="68.5,-1450.75 68.5,-1475 115.25,-1475 115.25,-1450.75 68.5,-1450.75"/>
<text xml:space="preserve" text-anchor="start" x="78.38" y="-1460.5" font-family="Linux libertine" font-size="10.00">input:</text>
<polygon fill="none" stroke="black" points="115.25,-1450.75 115.25,-1475 203.25,-1475 203.25,-1450.75 115.25,-1450.75"/>
<text xml:space="preserve" text-anchor="start" x="120.25" y="-1460.5" font-family="Linux libertine" font-size="10.00">(1, 32, 256, 256) </text>
<polygon fill="none" stroke="black" points="68.5,-1426.5 68.5,-1450.75 115.25,-1450.75 115.25,-1426.5 68.5,-1426.5"/>
<text xml:space="preserve" text-anchor="start" x="73.5" y="-1436.25" font-family="Linux libertine" font-size="10.00">output: </text>
<polygon fill="none" stroke="black" points="115.25,-1426.5 115.25,-1450.75 203.25,-1450.75 203.25,-1426.5 115.25,-1426.5"/>
<text xml:space="preserve" text-anchor="start" x="120.25" y="-1436.25" font-family="Linux libertine" font-size="10.00">(1, 32, 128, 128) </text>
</g>
<!-- 3&#45;&gt;4 -->
<g id="edge4" class="edge">
<title>3&#45;&gt;4</title>
<path fill="none" stroke="black" d="M105,-1511.27C105,-1503.56 105,-1494.78 105,-1486.37"/>
<polygon fill="black" stroke="black" points="108.5,-1486.41 105,-1476.41 101.5,-1486.41 108.5,-1486.41"/>
</g>
<!-- 5 -->
<g id="node6" class="node">
<title>5</title>
<polygon fill="#c1ffc1" stroke="none" points="202.88,-1390.5 7.12,-1390.5 7.12,-1342 202.88,-1342 202.88,-1390.5"/>
<polygon fill="none" stroke="black" points="7.12,-1342 7.12,-1390.5 68.12,-1390.5 68.12,-1342 7.12,-1342"/>
<text xml:space="preserve" text-anchor="start" x="12.12" y="-1371" font-family="Linux libertine" font-size="10.00">Dropout2d</text>
<text xml:space="preserve" text-anchor="start" x="19.25" y="-1356.75" font-family="Linux libertine" font-size="10.00">depth:1</text>
<polygon fill="none" stroke="black" points="68.12,-1366.25 68.12,-1390.5 114.88,-1390.5 114.88,-1366.25 68.12,-1366.25"/>
<text xml:space="preserve" text-anchor="start" x="78" y="-1376" font-family="Linux libertine" font-size="10.00">input:</text>
<polygon fill="none" stroke="black" points="114.88,-1366.25 114.88,-1390.5 202.88,-1390.5 202.88,-1366.25 114.88,-1366.25"/>
<text xml:space="preserve" text-anchor="start" x="119.88" y="-1376" font-family="Linux libertine" font-size="10.00">(1, 32, 128, 128) </text>
<polygon fill="none" stroke="black" points="68.12,-1342 68.12,-1366.25 114.88,-1366.25 114.88,-1342 68.12,-1342"/>
<text xml:space="preserve" text-anchor="start" x="73.12" y="-1351.75" font-family="Linux libertine" font-size="10.00">output: </text>
<polygon fill="none" stroke="black" points="114.88,-1342 114.88,-1366.25 202.88,-1366.25 202.88,-1342 114.88,-1342"/>
<text xml:space="preserve" text-anchor="start" x="119.88" y="-1351.75" font-family="Linux libertine" font-size="10.00">(1, 32, 128, 128) </text>
</g>
<!-- 4&#45;&gt;5 -->
<g id="edge5" class="edge">
<title>4&#45;&gt;5</title>
<path fill="none" stroke="black" d="M105,-1426.77C105,-1419.06 105,-1410.28 105,-1401.87"/>
<polygon fill="black" stroke="black" points="108.5,-1401.91 105,-1391.91 101.5,-1401.91 108.5,-1401.91"/>
</g>
<!-- 6 -->
<g id="node7" class="node">
<title>6</title>
<polygon fill="#c1ffc1" stroke="none" points="195.75,-1306 14.25,-1306 14.25,-1257.5 195.75,-1257.5 195.75,-1306"/>
<polygon fill="none" stroke="black" points="14.25,-1257.5 14.25,-1306 61,-1306 61,-1257.5 14.25,-1257.5"/>
<text xml:space="preserve" text-anchor="start" x="20" y="-1286.5" font-family="Linux libertine" font-size="10.00">Conv2d</text>
<text xml:space="preserve" text-anchor="start" x="19.25" y="-1272.25" font-family="Linux libertine" font-size="10.00">depth:1</text>
<polygon fill="none" stroke="black" points="61,-1281.75 61,-1306 107.75,-1306 107.75,-1281.75 61,-1281.75"/>
<text xml:space="preserve" text-anchor="start" x="70.88" y="-1291.5" font-family="Linux libertine" font-size="10.00">input:</text>
<polygon fill="none" stroke="black" points="107.75,-1281.75 107.75,-1306 195.75,-1306 195.75,-1281.75 107.75,-1281.75"/>
<text xml:space="preserve" text-anchor="start" x="112.75" y="-1291.5" font-family="Linux libertine" font-size="10.00">(1, 32, 128, 128) </text>
<polygon fill="none" stroke="black" points="61,-1257.5 61,-1281.75 107.75,-1281.75 107.75,-1257.5 61,-1257.5"/>
<text xml:space="preserve" text-anchor="start" x="66" y="-1267.25" font-family="Linux libertine" font-size="10.00">output: </text>
<polygon fill="none" stroke="black" points="107.75,-1257.5 107.75,-1281.75 195.75,-1281.75 195.75,-1257.5 107.75,-1257.5"/>
<text xml:space="preserve" text-anchor="start" x="112.75" y="-1267.25" font-family="Linux libertine" font-size="10.00">(1, 64, 128, 128) </text>
</g>
<!-- 5&#45;&gt;6 -->
<g id="edge6" class="edge">
<title>5&#45;&gt;6</title>
<path fill="none" stroke="black" d="M105,-1342.27C105,-1334.56 105,-1325.78 105,-1317.37"/>
<polygon fill="black" stroke="black" points="108.5,-1317.41 105,-1307.41 101.5,-1317.41 108.5,-1317.41"/>
</g>
<!-- 7 -->
<g id="node8" class="node">
<title>7</title>
<polygon fill="#c1ffc1" stroke="none" points="210,-1221.5 0,-1221.5 0,-1173 210,-1173 210,-1221.5"/>
<polygon fill="none" stroke="black" points="0,-1173 0,-1221.5 75.25,-1221.5 75.25,-1173 0,-1173"/>
<text xml:space="preserve" text-anchor="start" x="5" y="-1202" font-family="Linux libertine" font-size="10.00">BatchNorm2d</text>
<text xml:space="preserve" text-anchor="start" x="19.25" y="-1187.75" font-family="Linux libertine" font-size="10.00">depth:1</text>
<polygon fill="none" stroke="black" points="75.25,-1197.25 75.25,-1221.5 122,-1221.5 122,-1197.25 75.25,-1197.25"/>
<text xml:space="preserve" text-anchor="start" x="85.12" y="-1207" font-family="Linux libertine" font-size="10.00">input:</text>
<polygon fill="none" stroke="black" points="122,-1197.25 122,-1221.5 210,-1221.5 210,-1197.25 122,-1197.25"/>
<text xml:space="preserve" text-anchor="start" x="127" y="-1207" font-family="Linux libertine" font-size="10.00">(1, 64, 128, 128) </text>
<polygon fill="none" stroke="black" points="75.25,-1173 75.25,-1197.25 122,-1197.25 122,-1173 75.25,-1173"/>
<text xml:space="preserve" text-anchor="start" x="80.25" y="-1182.75" font-family="Linux libertine" font-size="10.00">output: </text>
<polygon fill="none" stroke="black" points="122,-1173 122,-1197.25 210,-1197.25 210,-1173 122,-1173"/>
<text xml:space="preserve" text-anchor="start" x="127" y="-1182.75" font-family="Linux libertine" font-size="10.00">(1, 64, 128, 128) </text>
</g>
<!-- 6&#45;&gt;7 -->
<g id="edge7" class="edge">
<title>6&#45;&gt;7</title>
<path fill="none" stroke="black" d="M105,-1257.77C105,-1250.06 105,-1241.28 105,-1232.87"/>
<polygon fill="black" stroke="black" points="108.5,-1232.91 105,-1222.91 101.5,-1232.91 108.5,-1232.91"/>
</g>
<!-- 8 -->
<g id="node9" class="node">
<title>8</title>
<polygon fill="aliceblue" stroke="none" points="195.75,-1137 14.25,-1137 14.25,-1088.5 195.75,-1088.5 195.75,-1137"/>
<polygon fill="none" stroke="black" points="14.25,-1088.5 14.25,-1137 61,-1137 61,-1088.5 14.25,-1088.5"/>
<text xml:space="preserve" text-anchor="start" x="28.62" y="-1117.5" font-family="Linux libertine" font-size="10.00">relu</text>
<text xml:space="preserve" text-anchor="start" x="19.25" y="-1103.25" font-family="Linux libertine" font-size="10.00">depth:1</text>
<polygon fill="none" stroke="black" points="61,-1112.75 61,-1137 107.75,-1137 107.75,-1112.75 61,-1112.75"/>
<text xml:space="preserve" text-anchor="start" x="70.88" y="-1122.5" font-family="Linux libertine" font-size="10.00">input:</text>
<polygon fill="none" stroke="black" points="107.75,-1112.75 107.75,-1137 195.75,-1137 195.75,-1112.75 107.75,-1112.75"/>
<text xml:space="preserve" text-anchor="start" x="112.75" y="-1122.5" font-family="Linux libertine" font-size="10.00">(1, 64, 128, 128) </text>
<polygon fill="none" stroke="black" points="61,-1088.5 61,-1112.75 107.75,-1112.75 107.75,-1088.5 61,-1088.5"/>
<text xml:space="preserve" text-anchor="start" x="66" y="-1098.25" font-family="Linux libertine" font-size="10.00">output: </text>
<polygon fill="none" stroke="black" points="107.75,-1088.5 107.75,-1112.75 195.75,-1112.75 195.75,-1088.5 107.75,-1088.5"/>
<text xml:space="preserve" text-anchor="start" x="112.75" y="-1098.25" font-family="Linux libertine" font-size="10.00">(1, 64, 128, 128) </text>
</g>
<!-- 7&#45;&gt;8 -->
<g id="edge8" class="edge">
<title>7&#45;&gt;8</title>
<path fill="none" stroke="black" d="M105,-1173.27C105,-1165.56 105,-1156.78 105,-1148.37"/>
<polygon fill="black" stroke="black" points="108.5,-1148.41 105,-1138.41 101.5,-1148.41 108.5,-1148.41"/>
</g>
<!-- 9 -->
<g id="node10" class="node">
<title>9</title>
<polygon fill="#c1ffc1" stroke="none" points="203.25,-1052.5 6.75,-1052.5 6.75,-1004 203.25,-1004 203.25,-1052.5"/>
<polygon fill="none" stroke="black" points="6.75,-1004 6.75,-1052.5 68.5,-1052.5 68.5,-1004 6.75,-1004"/>
<text xml:space="preserve" text-anchor="start" x="11.75" y="-1033" font-family="Linux libertine" font-size="10.00">MaxPool2d</text>
<text xml:space="preserve" text-anchor="start" x="19.25" y="-1018.75" font-family="Linux libertine" font-size="10.00">depth:1</text>
<polygon fill="none" stroke="black" points="68.5,-1028.25 68.5,-1052.5 115.25,-1052.5 115.25,-1028.25 68.5,-1028.25"/>
<text xml:space="preserve" text-anchor="start" x="78.38" y="-1038" font-family="Linux libertine" font-size="10.00">input:</text>
<polygon fill="none" stroke="black" points="115.25,-1028.25 115.25,-1052.5 203.25,-1052.5 203.25,-1028.25 115.25,-1028.25"/>
<text xml:space="preserve" text-anchor="start" x="120.25" y="-1038" font-family="Linux libertine" font-size="10.00">(1, 64, 128, 128) </text>
<polygon fill="none" stroke="black" points="68.5,-1004 68.5,-1028.25 115.25,-1028.25 115.25,-1004 68.5,-1004"/>
<text xml:space="preserve" text-anchor="start" x="73.5" y="-1013.75" font-family="Linux libertine" font-size="10.00">output: </text>
<polygon fill="none" stroke="black" points="115.25,-1004 115.25,-1028.25 203.25,-1028.25 203.25,-1004 115.25,-1004"/>
<text xml:space="preserve" text-anchor="start" x="126.25" y="-1013.75" font-family="Linux libertine" font-size="10.00">(1, 64, 64, 64) </text>
</g>
<!-- 8&#45;&gt;9 -->
<g id="edge9" class="edge">
<title>8&#45;&gt;9</title>
<path fill="none" stroke="black" d="M105,-1088.77C105,-1081.06 105,-1072.28 105,-1063.87"/>
<polygon fill="black" stroke="black" points="108.5,-1063.91 105,-1053.91 101.5,-1063.91 108.5,-1063.91"/>
</g>
<!-- 10 -->
<g id="node11" class="node">
<title>10</title>
<polygon fill="#c1ffc1" stroke="none" points="196.88,-968 13.12,-968 13.12,-919.5 196.88,-919.5 196.88,-968"/>
<polygon fill="none" stroke="black" points="13.12,-919.5 13.12,-968 74.12,-968 74.12,-919.5 13.12,-919.5"/>
<text xml:space="preserve" text-anchor="start" x="18.12" y="-948.5" font-family="Linux libertine" font-size="10.00">Dropout2d</text>
<text xml:space="preserve" text-anchor="start" x="25.25" y="-934.25" font-family="Linux libertine" font-size="10.00">depth:1</text>
<polygon fill="none" stroke="black" points="74.12,-943.75 74.12,-968 120.88,-968 120.88,-943.75 74.12,-943.75"/>
<text xml:space="preserve" text-anchor="start" x="84" y="-953.5" font-family="Linux libertine" font-size="10.00">input:</text>
<polygon fill="none" stroke="black" points="120.88,-943.75 120.88,-968 196.88,-968 196.88,-943.75 120.88,-943.75"/>
<text xml:space="preserve" text-anchor="start" x="125.88" y="-953.5" font-family="Linux libertine" font-size="10.00">(1, 64, 64, 64) </text>
<polygon fill="none" stroke="black" points="74.12,-919.5 74.12,-943.75 120.88,-943.75 120.88,-919.5 74.12,-919.5"/>
<text xml:space="preserve" text-anchor="start" x="79.12" y="-929.25" font-family="Linux libertine" font-size="10.00">output: </text>
<polygon fill="none" stroke="black" points="120.88,-919.5 120.88,-943.75 196.88,-943.75 196.88,-919.5 120.88,-919.5"/>
<text xml:space="preserve" text-anchor="start" x="125.88" y="-929.25" font-family="Linux libertine" font-size="10.00">(1, 64, 64, 64) </text>
</g>
<!-- 9&#45;&gt;10 -->
<g id="edge10" class="edge">
<title>9&#45;&gt;10</title>
<path fill="none" stroke="black" d="M105,-1004.27C105,-996.56 105,-987.78 105,-979.37"/>
<polygon fill="black" stroke="black" points="108.5,-979.41 105,-969.41 101.5,-979.41 108.5,-979.41"/>
</g>
<!-- 11 -->
<g id="node12" class="node">
<title>11</title>
<polygon fill="#c1ffc1" stroke="none" points="192.75,-883.5 17.25,-883.5 17.25,-835 192.75,-835 192.75,-883.5"/>
<polygon fill="none" stroke="black" points="17.25,-835 17.25,-883.5 64,-883.5 64,-835 17.25,-835"/>
<text xml:space="preserve" text-anchor="start" x="23" y="-864" font-family="Linux libertine" font-size="10.00">Conv2d</text>
<text xml:space="preserve" text-anchor="start" x="22.25" y="-849.75" font-family="Linux libertine" font-size="10.00">depth:1</text>
<polygon fill="none" stroke="black" points="64,-859.25 64,-883.5 110.75,-883.5 110.75,-859.25 64,-859.25"/>
<text xml:space="preserve" text-anchor="start" x="73.88" y="-869" font-family="Linux libertine" font-size="10.00">input:</text>
<polygon fill="none" stroke="black" points="110.75,-859.25 110.75,-883.5 192.75,-883.5 192.75,-859.25 110.75,-859.25"/>
<text xml:space="preserve" text-anchor="start" x="118.75" y="-869" font-family="Linux libertine" font-size="10.00">(1, 64, 64, 64) </text>
<polygon fill="none" stroke="black" points="64,-835 64,-859.25 110.75,-859.25 110.75,-835 64,-835"/>
<text xml:space="preserve" text-anchor="start" x="69" y="-844.75" font-family="Linux libertine" font-size="10.00">output: </text>
<polygon fill="none" stroke="black" points="110.75,-835 110.75,-859.25 192.75,-859.25 192.75,-835 110.75,-835"/>
<text xml:space="preserve" text-anchor="start" x="115.75" y="-844.75" font-family="Linux libertine" font-size="10.00">(1, 128, 64, 64) </text>
</g>
<!-- 10&#45;&gt;11 -->
<g id="edge11" class="edge">
<title>10&#45;&gt;11</title>
<path fill="none" stroke="black" d="M105,-919.77C105,-912.06 105,-903.28 105,-894.87"/>
<polygon fill="black" stroke="black" points="108.5,-894.91 105,-884.91 101.5,-894.91 108.5,-894.91"/>
</g>
<!-- 12 -->
<g id="node13" class="node">
<title>12</title>
<polygon fill="#c1ffc1" stroke="none" points="207,-799 3,-799 3,-750.5 207,-750.5 207,-799"/>
<polygon fill="none" stroke="black" points="3,-750.5 3,-799 78.25,-799 78.25,-750.5 3,-750.5"/>
<text xml:space="preserve" text-anchor="start" x="8" y="-779.5" font-family="Linux libertine" font-size="10.00">BatchNorm2d</text>
<text xml:space="preserve" text-anchor="start" x="22.25" y="-765.25" font-family="Linux libertine" font-size="10.00">depth:1</text>
<polygon fill="none" stroke="black" points="78.25,-774.75 78.25,-799 125,-799 125,-774.75 78.25,-774.75"/>
<text xml:space="preserve" text-anchor="start" x="88.12" y="-784.5" font-family="Linux libertine" font-size="10.00">input:</text>
<polygon fill="none" stroke="black" points="125,-774.75 125,-799 207,-799 207,-774.75 125,-774.75"/>
<text xml:space="preserve" text-anchor="start" x="130" y="-784.5" font-family="Linux libertine" font-size="10.00">(1, 128, 64, 64) </text>
<polygon fill="none" stroke="black" points="78.25,-750.5 78.25,-774.75 125,-774.75 125,-750.5 78.25,-750.5"/>
<text xml:space="preserve" text-anchor="start" x="83.25" y="-760.25" font-family="Linux libertine" font-size="10.00">output: </text>
<polygon fill="none" stroke="black" points="125,-750.5 125,-774.75 207,-774.75 207,-750.5 125,-750.5"/>
<text xml:space="preserve" text-anchor="start" x="130" y="-760.25" font-family="Linux libertine" font-size="10.00">(1, 128, 64, 64) </text>
</g>
<!-- 11&#45;&gt;12 -->
<g id="edge12" class="edge">
<title>11&#45;&gt;12</title>
<path fill="none" stroke="black" d="M105,-835.27C105,-827.56 105,-818.78 105,-810.37"/>
<polygon fill="black" stroke="black" points="108.5,-810.41 105,-800.41 101.5,-810.41 108.5,-810.41"/>
</g>
<!-- 13 -->
<g id="node14" class="node">
<title>13</title>
<polygon fill="aliceblue" stroke="none" points="192.75,-714.5 17.25,-714.5 17.25,-666 192.75,-666 192.75,-714.5"/>
<polygon fill="none" stroke="black" points="17.25,-666 17.25,-714.5 64,-714.5 64,-666 17.25,-666"/>
<text xml:space="preserve" text-anchor="start" x="31.62" y="-695" font-family="Linux libertine" font-size="10.00">relu</text>
<text xml:space="preserve" text-anchor="start" x="22.25" y="-680.75" font-family="Linux libertine" font-size="10.00">depth:1</text>
<polygon fill="none" stroke="black" points="64,-690.25 64,-714.5 110.75,-714.5 110.75,-690.25 64,-690.25"/>
<text xml:space="preserve" text-anchor="start" x="73.88" y="-700" font-family="Linux libertine" font-size="10.00">input:</text>
<polygon fill="none" stroke="black" points="110.75,-690.25 110.75,-714.5 192.75,-714.5 192.75,-690.25 110.75,-690.25"/>
<text xml:space="preserve" text-anchor="start" x="115.75" y="-700" font-family="Linux libertine" font-size="10.00">(1, 128, 64, 64) </text>
<polygon fill="none" stroke="black" points="64,-666 64,-690.25 110.75,-690.25 110.75,-666 64,-666"/>
<text xml:space="preserve" text-anchor="start" x="69" y="-675.75" font-family="Linux libertine" font-size="10.00">output: </text>
<polygon fill="none" stroke="black" points="110.75,-666 110.75,-690.25 192.75,-690.25 192.75,-666 110.75,-666"/>
<text xml:space="preserve" text-anchor="start" x="115.75" y="-675.75" font-family="Linux libertine" font-size="10.00">(1, 128, 64, 64) </text>
</g>
<!-- 12&#45;&gt;13 -->
<g id="edge13" class="edge">
<title>12&#45;&gt;13</title>
<path fill="none" stroke="black" d="M105,-750.77C105,-743.06 105,-734.28 105,-725.87"/>
<polygon fill="black" stroke="black" points="108.5,-725.91 105,-715.91 101.5,-725.91 108.5,-725.91"/>
</g>
<!-- 14 -->
<g id="node15" class="node">
<title>14</title>
<polygon fill="#c1ffc1" stroke="none" points="200.25,-630 9.75,-630 9.75,-581.5 200.25,-581.5 200.25,-630"/>
<polygon fill="none" stroke="black" points="9.75,-581.5 9.75,-630 71.5,-630 71.5,-581.5 9.75,-581.5"/>
<text xml:space="preserve" text-anchor="start" x="14.75" y="-610.5" font-family="Linux libertine" font-size="10.00">MaxPool2d</text>
<text xml:space="preserve" text-anchor="start" x="22.25" y="-596.25" font-family="Linux libertine" font-size="10.00">depth:1</text>
<polygon fill="none" stroke="black" points="71.5,-605.75 71.5,-630 118.25,-630 118.25,-605.75 71.5,-605.75"/>
<text xml:space="preserve" text-anchor="start" x="81.38" y="-615.5" font-family="Linux libertine" font-size="10.00">input:</text>
<polygon fill="none" stroke="black" points="118.25,-605.75 118.25,-630 200.25,-630 200.25,-605.75 118.25,-605.75"/>
<text xml:space="preserve" text-anchor="start" x="123.25" y="-615.5" font-family="Linux libertine" font-size="10.00">(1, 128, 64, 64) </text>
<polygon fill="none" stroke="black" points="71.5,-581.5 71.5,-605.75 118.25,-605.75 118.25,-581.5 71.5,-581.5"/>
<text xml:space="preserve" text-anchor="start" x="76.5" y="-591.25" font-family="Linux libertine" font-size="10.00">output: </text>
<polygon fill="none" stroke="black" points="118.25,-581.5 118.25,-605.75 200.25,-605.75 200.25,-581.5 118.25,-581.5"/>
<text xml:space="preserve" text-anchor="start" x="123.25" y="-591.25" font-family="Linux libertine" font-size="10.00">(1, 128, 32, 32) </text>
</g>
<!-- 13&#45;&gt;14 -->
<g id="edge14" class="edge">
<title>13&#45;&gt;14</title>
<path fill="none" stroke="black" d="M105,-666.27C105,-658.56 105,-649.78 105,-641.37"/>
<polygon fill="black" stroke="black" points="108.5,-641.41 105,-631.41 101.5,-641.41 108.5,-641.41"/>
</g>
<!-- 15 -->
<g id="node16" class="node">
<title>15</title>
<polygon fill="#c1ffc1" stroke="none" points="199.88,-545.5 10.12,-545.5 10.12,-497 199.88,-497 199.88,-545.5"/>
<polygon fill="none" stroke="black" points="10.12,-497 10.12,-545.5 71.12,-545.5 71.12,-497 10.12,-497"/>
<text xml:space="preserve" text-anchor="start" x="15.12" y="-526" font-family="Linux libertine" font-size="10.00">Dropout2d</text>
<text xml:space="preserve" text-anchor="start" x="22.25" y="-511.75" font-family="Linux libertine" font-size="10.00">depth:1</text>
<polygon fill="none" stroke="black" points="71.12,-521.25 71.12,-545.5 117.88,-545.5 117.88,-521.25 71.12,-521.25"/>
<text xml:space="preserve" text-anchor="start" x="81" y="-531" font-family="Linux libertine" font-size="10.00">input:</text>
<polygon fill="none" stroke="black" points="117.88,-521.25 117.88,-545.5 199.88,-545.5 199.88,-521.25 117.88,-521.25"/>
<text xml:space="preserve" text-anchor="start" x="122.88" y="-531" font-family="Linux libertine" font-size="10.00">(1, 128, 32, 32) </text>
<polygon fill="none" stroke="black" points="71.12,-497 71.12,-521.25 117.88,-521.25 117.88,-497 71.12,-497"/>
<text xml:space="preserve" text-anchor="start" x="76.12" y="-506.75" font-family="Linux libertine" font-size="10.00">output: </text>
<polygon fill="none" stroke="black" points="117.88,-497 117.88,-521.25 199.88,-521.25 199.88,-497 117.88,-497"/>
<text xml:space="preserve" text-anchor="start" x="122.88" y="-506.75" font-family="Linux libertine" font-size="10.00">(1, 128, 32, 32) </text>
</g>
<!-- 14&#45;&gt;15 -->
<g id="edge15" class="edge">
<title>14&#45;&gt;15</title>
<path fill="none" stroke="black" d="M105,-581.77C105,-574.06 105,-565.28 105,-556.87"/>
<polygon fill="black" stroke="black" points="108.5,-556.91 105,-546.91 101.5,-556.91 108.5,-556.91"/>
</g>
<!-- 16 -->
<g id="node17" class="node">
<title>16</title>
<polygon fill="aliceblue" stroke="none" points="192.75,-461 17.25,-461 17.25,-412.5 192.75,-412.5 192.75,-461"/>
<polygon fill="none" stroke="black" points="17.25,-412.5 17.25,-461 64,-461 64,-412.5 17.25,-412.5"/>
<text xml:space="preserve" text-anchor="start" x="30.5" y="-441.5" font-family="Linux libertine" font-size="10.00">view</text>
<text xml:space="preserve" text-anchor="start" x="22.25" y="-427.25" font-family="Linux libertine" font-size="10.00">depth:1</text>
<polygon fill="none" stroke="black" points="64,-436.75 64,-461 110.75,-461 110.75,-436.75 64,-436.75"/>
<text xml:space="preserve" text-anchor="start" x="73.88" y="-446.5" font-family="Linux libertine" font-size="10.00">input:</text>
<polygon fill="none" stroke="black" points="110.75,-436.75 110.75,-461 192.75,-461 192.75,-436.75 110.75,-436.75"/>
<text xml:space="preserve" text-anchor="start" x="115.75" y="-446.5" font-family="Linux libertine" font-size="10.00">(1, 128, 32, 32) </text>
<polygon fill="none" stroke="black" points="64,-412.5 64,-436.75 110.75,-436.75 110.75,-412.5 64,-412.5"/>
<text xml:space="preserve" text-anchor="start" x="69" y="-422.25" font-family="Linux libertine" font-size="10.00">output: </text>
<polygon fill="none" stroke="black" points="110.75,-412.5 110.75,-436.75 192.75,-436.75 192.75,-412.5 110.75,-412.5"/>
<text xml:space="preserve" text-anchor="start" x="124" y="-422.25" font-family="Linux libertine" font-size="10.00">(1, 131072) </text>
</g>
<!-- 15&#45;&gt;16 -->
<g id="edge16" class="edge">
<title>15&#45;&gt;16</title>
<path fill="none" stroke="black" d="M105,-497.27C105,-489.56 105,-480.78 105,-472.37"/>
<polygon fill="black" stroke="black" points="108.5,-472.41 105,-462.41 101.5,-472.41 108.5,-472.41"/>
</g>
<!-- 17 -->
<g id="node18" class="node">
<title>17</title>
<polygon fill="#c1ffc1" stroke="none" points="184.5,-376.5 25.5,-376.5 25.5,-328 184.5,-328 184.5,-376.5"/>
<polygon fill="none" stroke="black" points="25.5,-328 25.5,-376.5 72.25,-376.5 72.25,-328 25.5,-328"/>
<text xml:space="preserve" text-anchor="start" x="34.25" y="-357" font-family="Linux libertine" font-size="10.00">Linear</text>
<text xml:space="preserve" text-anchor="start" x="30.5" y="-342.75" font-family="Linux libertine" font-size="10.00">depth:1</text>
<polygon fill="none" stroke="black" points="72.25,-352.25 72.25,-376.5 119,-376.5 119,-352.25 72.25,-352.25"/>
<text xml:space="preserve" text-anchor="start" x="82.12" y="-362" font-family="Linux libertine" font-size="10.00">input:</text>
<polygon fill="none" stroke="black" points="119,-352.25 119,-376.5 184.5,-376.5 184.5,-352.25 119,-352.25"/>
<text xml:space="preserve" text-anchor="start" x="124" y="-362" font-family="Linux libertine" font-size="10.00">(1, 131072) </text>
<polygon fill="none" stroke="black" points="72.25,-328 72.25,-352.25 119,-352.25 119,-328 72.25,-328"/>
<text xml:space="preserve" text-anchor="start" x="77.25" y="-337.75" font-family="Linux libertine" font-size="10.00">output: </text>
<polygon fill="none" stroke="black" points="119,-328 119,-352.25 184.5,-352.25 184.5,-328 119,-328"/>
<text xml:space="preserve" text-anchor="start" x="133" y="-337.75" font-family="Linux libertine" font-size="10.00">(1, 256) </text>
</g>
<!-- 16&#45;&gt;17 -->
<g id="edge17" class="edge">
<title>16&#45;&gt;17</title>
<path fill="none" stroke="black" d="M105,-412.77C105,-405.06 105,-396.28 105,-387.87"/>
<polygon fill="black" stroke="black" points="108.5,-387.91 105,-377.91 101.5,-387.91 108.5,-387.91"/>
</g>
<!-- 18 -->
<g id="node19" class="node">
<title>18</title>
<polygon fill="aliceblue" stroke="none" points="175.5,-292 34.5,-292 34.5,-243.5 175.5,-243.5 175.5,-292"/>
<polygon fill="none" stroke="black" points="34.5,-243.5 34.5,-292 81.25,-292 81.25,-243.5 34.5,-243.5"/>
<text xml:space="preserve" text-anchor="start" x="48.88" y="-272.5" font-family="Linux libertine" font-size="10.00">relu</text>
<text xml:space="preserve" text-anchor="start" x="39.5" y="-258.25" font-family="Linux libertine" font-size="10.00">depth:1</text>
<polygon fill="none" stroke="black" points="81.25,-267.75 81.25,-292 128,-292 128,-267.75 81.25,-267.75"/>
<text xml:space="preserve" text-anchor="start" x="91.12" y="-277.5" font-family="Linux libertine" font-size="10.00">input:</text>
<polygon fill="none" stroke="black" points="128,-267.75 128,-292 175.5,-292 175.5,-267.75 128,-267.75"/>
<text xml:space="preserve" text-anchor="start" x="133" y="-277.5" font-family="Linux libertine" font-size="10.00">(1, 256) </text>
<polygon fill="none" stroke="black" points="81.25,-243.5 81.25,-267.75 128,-267.75 128,-243.5 81.25,-243.5"/>
<text xml:space="preserve" text-anchor="start" x="86.25" y="-253.25" font-family="Linux libertine" font-size="10.00">output: </text>
<polygon fill="none" stroke="black" points="128,-243.5 128,-267.75 175.5,-267.75 175.5,-243.5 128,-243.5"/>
<text xml:space="preserve" text-anchor="start" x="133" y="-253.25" font-family="Linux libertine" font-size="10.00">(1, 256) </text>
</g>
<!-- 17&#45;&gt;18 -->
<g id="edge18" class="edge">
<title>17&#45;&gt;18</title>
<path fill="none" stroke="black" d="M105,-328.27C105,-320.56 105,-311.78 105,-303.37"/>
<polygon fill="black" stroke="black" points="108.5,-303.41 105,-293.41 101.5,-303.41 108.5,-303.41"/>
</g>
<!-- 19 -->
<g id="node20" class="node">
<title>19</title>
<polygon fill="#c1ffc1" stroke="none" points="176.62,-207.5 33.38,-207.5 33.38,-159 176.62,-159 176.62,-207.5"/>
<polygon fill="none" stroke="black" points="33.38,-159 33.38,-207.5 82.38,-207.5 82.38,-159 33.38,-159"/>
<text xml:space="preserve" text-anchor="start" x="38.38" y="-188" font-family="Linux libertine" font-size="10.00">Dropout</text>
<text xml:space="preserve" text-anchor="start" x="39.5" y="-173.75" font-family="Linux libertine" font-size="10.00">depth:1</text>
<polygon fill="none" stroke="black" points="82.38,-183.25 82.38,-207.5 129.12,-207.5 129.12,-183.25 82.38,-183.25"/>
<text xml:space="preserve" text-anchor="start" x="92.25" y="-193" font-family="Linux libertine" font-size="10.00">input:</text>
<polygon fill="none" stroke="black" points="129.12,-183.25 129.12,-207.5 176.62,-207.5 176.62,-183.25 129.12,-183.25"/>
<text xml:space="preserve" text-anchor="start" x="134.12" y="-193" font-family="Linux libertine" font-size="10.00">(1, 256) </text>
<polygon fill="none" stroke="black" points="82.38,-159 82.38,-183.25 129.12,-183.25 129.12,-159 82.38,-159"/>
<text xml:space="preserve" text-anchor="start" x="87.38" y="-168.75" font-family="Linux libertine" font-size="10.00">output: </text>
<polygon fill="none" stroke="black" points="129.12,-159 129.12,-183.25 176.62,-183.25 176.62,-159 129.12,-159"/>
<text xml:space="preserve" text-anchor="start" x="134.12" y="-168.75" font-family="Linux libertine" font-size="10.00">(1, 256) </text>
</g>
<!-- 18&#45;&gt;19 -->
<g id="edge19" class="edge">
<title>18&#45;&gt;19</title>
<path fill="none" stroke="black" d="M105,-243.77C105,-236.06 105,-227.28 105,-218.87"/>
<polygon fill="black" stroke="black" points="108.5,-218.91 105,-208.91 101.5,-218.91 108.5,-218.91"/>
</g>
<!-- 20 -->
<g id="node21" class="node">
<title>20</title>
<polygon fill="#c1ffc1" stroke="none" points="175.5,-123 34.5,-123 34.5,-74.5 175.5,-74.5 175.5,-123"/>
<polygon fill="none" stroke="black" points="34.5,-74.5 34.5,-123 81.25,-123 81.25,-74.5 34.5,-74.5"/>
<text xml:space="preserve" text-anchor="start" x="43.25" y="-103.5" font-family="Linux libertine" font-size="10.00">Linear</text>
<text xml:space="preserve" text-anchor="start" x="39.5" y="-89.25" font-family="Linux libertine" font-size="10.00">depth:1</text>
<polygon fill="none" stroke="black" points="81.25,-98.75 81.25,-123 128,-123 128,-98.75 81.25,-98.75"/>
<text xml:space="preserve" text-anchor="start" x="91.12" y="-108.5" font-family="Linux libertine" font-size="10.00">input:</text>
<polygon fill="none" stroke="black" points="128,-98.75 128,-123 175.5,-123 175.5,-98.75 128,-98.75"/>
<text xml:space="preserve" text-anchor="start" x="133" y="-108.5" font-family="Linux libertine" font-size="10.00">(1, 256) </text>
<polygon fill="none" stroke="black" points="81.25,-74.5 81.25,-98.75 128,-98.75 128,-74.5 81.25,-74.5"/>
<text xml:space="preserve" text-anchor="start" x="86.25" y="-84.25" font-family="Linux libertine" font-size="10.00">output: </text>
<polygon fill="none" stroke="black" points="128,-74.5 128,-98.75 175.5,-98.75 175.5,-74.5 128,-74.5"/>
<text xml:space="preserve" text-anchor="start" x="139" y="-84.25" font-family="Linux libertine" font-size="10.00">(1, 3) </text>
</g>
<!-- 19&#45;&gt;20 -->
<g id="edge20" class="edge">
<title>19&#45;&gt;20</title>
<path fill="none" stroke="black" d="M105,-159.27C105,-151.56 105,-142.78 105,-134.37"/>
<polygon fill="black" stroke="black" points="108.5,-134.41 105,-124.41 101.5,-134.41 108.5,-134.41"/>
</g>
<!-- 21 -->
<g id="node22" class="node">
<title>21</title>
<polygon fill="lightyellow" stroke="none" points="159.25,-38.5 50.75,-38.5 50.75,0 159.25,0 159.25,-38.5"/>
<polygon fill="none" stroke="black" points="50.75,0 50.75,-38.5 126,-38.5 126,0 50.75,0"/>
<text xml:space="preserve" text-anchor="start" x="55.75" y="-24" font-family="Linux libertine" font-size="10.00">output&#45;tensor</text>
<text xml:space="preserve" text-anchor="start" x="70" y="-9.75" font-family="Linux libertine" font-size="10.00">depth:0</text>
<polygon fill="none" stroke="black" points="126,0 126,-38.5 159.25,-38.5 159.25,0 126,0"/>
<text xml:space="preserve" text-anchor="start" x="131" y="-16.88" font-family="Linux libertine" font-size="10.00">(1, 3)</text>
</g>
<!-- 20&#45;&gt;21 -->
<g id="edge21" class="edge">
<title>20&#45;&gt;21</title>
<path fill="none" stroke="black" d="M105,-74.92C105,-66.97 105,-57.93 105,-49.53"/>
<polygon fill="black" stroke="black" points="108.5,-49.77 105,-39.77 101.5,-49.77 108.5,-49.77"/>
</g>
</g>
</svg>
